<svg xmlns="http://www.w3.org/2000/svg" xmlns:xlink="http://www.w3.org/1999/xlink" width="2000" zoomAndPan="magnify" viewBox="0 0 1500 1499.999933" height="2000" preserveAspectRatio="xMidYMid meet" version="1.0"><defs><clipPath id="e818512c34"><path d="M 499.492188 284.351562 L 1425.003906 284.351562 L 1425.003906 438.925781 L 499.492188 438.925781 Z M 499.492188 284.351562 " clip-rule="nonzero"/></clipPath><clipPath id="cdc8b5298a"><path d="M 0.492188 0.351562 L 926.003906 0.351562 L 926.003906 154.925781 L 0.492188 154.925781 Z M 0.492188 0.351562 " clip-rule="nonzero"/></clipPath><clipPath id="1a84fbbdb8"><rect x="0" width="927" y="0" height="155"/></clipPath><clipPath id="aedef26908"><path d="M 1062.066406 496.878906 L 1216.566406 496.878906 L 1216.566406 1425 L 1062.066406 1425 Z M 1062.066406 496.878906 " clip-rule="nonzero"/></clipPath><clipPath id="c8dd301204"><path d="M 0.0664062 0.878906 L 154.566406 0.878906 L 154.566406 929 L 0.0664062 929 Z M 0.0664062 0.878906 " clip-rule="nonzero"/></clipPath><clipPath id="5548e29c35"><rect x="0" width="155" y="0" height="929"/></clipPath><clipPath id="227060776d"><path d="M 74.996094 1061.398438 L 1004.320312 1061.398438 L 1004.320312 1215.972656 L 74.996094 1215.972656 Z M 74.996094 1061.398438 " clip-rule="nonzero"/></clipPath><clipPath id="5efc9136e8"><path d="M 1 0.398438 L 930.320312 0.398438 L 930.320312 154.972656 L 1 154.972656 Z M 1 0.398438 " clip-rule="nonzero"/></clipPath><clipPath id="1effd98c66"><rect x="0" width="931" y="0" height="155"/></clipPath><clipPath id="471b830974"><path d="M 75 75 L 229.5 75 L 229.5 1003.121094 L 75 1003.121094 Z M 75 75 " clip-rule="nonzero"/></clipPath><clipPath id="9ae26f73b6"><path d="M 0 0 L 154.5 0 L 154.5 928.121094 L 0 928.121094 Z M 0 0 " clip-rule="nonzero"/></clipPath><clipPath id="157baeca87"><rect x="0" width="155" y="0" height="929"/></clipPath><clipPath id="26eeb6b8ec"><path d="M 499.492188 75.324219 L 1425.003906 75.324219 L 1425.003906 229.898438 L 499.492188 229.898438 Z M 499.492188 75.324219 " clip-rule="nonzero"/></clipPath><clipPath id="bc9276df74"><path d="M 0.492188 0.324219 L 926.003906 0.324219 L 926.003906 154.898438 L 0.492188 154.898438 Z M 0.492188 0.324219 " clip-rule="nonzero"/></clipPath><clipPath id="029b53cf0e"><rect x="0" width="927" y="0" height="155"/></clipPath><clipPath id="d77eba8d1d"><path d="M 1270.5 496.878906 L 1425 496.878906 L 1425 1425 L 1270.5 1425 Z M 1270.5 496.878906 " clip-rule="nonzero"/></clipPath><clipPath id="a9f3993dca"><path d="M 0.5 0.878906 L 155 0.878906 L 155 929 L 0.5 929 Z M 0.5 0.878906 " clip-rule="nonzero"/></clipPath><clipPath id="952e1e4bfd"><rect x="0" width="155" y="0" height="929"/></clipPath><clipPath id="da3b6bf5f8"><path d="M 74.996094 1270.425781 L 1004.320312 1270.425781 L 1004.320312 1425 L 74.996094 1425 Z M 74.996094 1270.425781 " clip-rule="nonzero"/></clipPath><clipPath id="9a71930752"><path d="M 1 0.425781 L 930.320312 0.425781 L 930.320312 155 L 1 155 Z M 1 0.425781 " clip-rule="nonzero"/></clipPath><clipPath id="5e85c91ab4"><rect x="0" width="931" y="0" height="155"/></clipPath><clipPath id="e7e895c69a"><path d="M 287.246094 75 L 441.746094 75 L 441.746094 1003.121094 L 287.246094 1003.121094 Z M 287.246094 75 " clip-rule="nonzero"/></clipPath><clipPath id="023e024ead"><path d="M 0.246094 0 L 154.746094 0 L 154.746094 928.121094 L 0.246094 928.121094 Z M 0.246094 0 " clip-rule="nonzero"/></clipPath><clipPath id="b9b9f0bfb9"><rect x="0" width="155" y="0" height="929"/></clipPath></defs><g clip-path="url(#e818512c34)"><g transform="matrix(1, 0, 0, 1, 499, 284)"><g clip-path="url(#1a84fbbdb8)"><g clip-path="url(#cdc8b5298a)"><path fill="#ae0f0f" d="M 0.492188 154.925781 L 0.492188 0.351562 L 926.121094 0.351562 L 926.121094 154.925781 Z M 0.492188 154.925781 " fill-opacity="1" fill-rule="nonzero"/></g></g></g></g><g clip-path="url(#aedef26908)"><g transform="matrix(1, 0, 0, 1, 1062, 496)"><g clip-path="url(#5548e29c35)"><g clip-path="url(#c8dd301204)"><path fill="#ae0f0f" d="M 0.0664062 0.878906 L 154.566406 0.878906 L 154.566406 929.089844 L 0.0664062 929.089844 Z M 0.0664062 0.878906 " fill-opacity="1" fill-rule="nonzero"/></g></g></g></g><g clip-path="url(#227060776d)"><g transform="matrix(1, 0, 0, 1, 74, 1061)"><g clip-path="url(#1effd98c66)"><g clip-path="url(#5efc9136e8)"><path fill="#ae0f0f" d="M 930.320312 0.398438 L 930.320312 154.972656 L 1.070312 154.972656 L 1.070312 0.398438 Z M 930.320312 0.398438 " fill-opacity="1" fill-rule="nonzero"/></g></g></g></g><g clip-path="url(#471b830974)"><g transform="matrix(1, 0, 0, 1, 75, 75)"><g clip-path="url(#157baeca87)"><g clip-path="url(#9ae26f73b6)"><path fill="#ae0f0f" d="M 0 0 L 154.5 0 L 154.5 928.210938 L 0 928.210938 Z M 0 0 " fill-opacity="1" fill-rule="nonzero"/></g></g></g></g><g clip-path="url(#26eeb6b8ec)"><g transform="matrix(1, 0, 0, 1, 499, 75)"><g clip-path="url(#029b53cf0e)"><g clip-path="url(#bc9276df74)"><path fill="#ae0f0f" d="M 0.492188 154.898438 L 0.492188 0.324219 L 926.121094 0.324219 L 926.121094 154.898438 Z M 0.492188 154.898438 " fill-opacity="1" fill-rule="nonzero"/></g></g></g></g><g clip-path="url(#d77eba8d1d)"><g transform="matrix(1, 0, 0, 1, 1270, 496)"><g clip-path="url(#952e1e4bfd)"><g clip-path="url(#a9f3993dca)"><path fill="#ae0f0f" d="M 0.5 0.878906 L 155 0.878906 L 155 929.089844 L 0.5 929.089844 Z M 0.5 0.878906 " fill-opacity="1" fill-rule="nonzero"/></g></g></g></g><g clip-path="url(#da3b6bf5f8)"><g transform="matrix(1, 0, 0, 1, 74, 1270)"><g clip-path="url(#5e85c91ab4)"><g clip-path="url(#9a71930752)"><path fill="#ae0f0f" d="M 930.320312 0.425781 L 930.320312 155 L 1.070312 155 L 1.070312 0.425781 Z M 930.320312 0.425781 " fill-opacity="1" fill-rule="nonzero"/></g></g></g></g><g clip-path="url(#e7e895c69a)"><g transform="matrix(1, 0, 0, 1, 287, 75)"><g clip-path="url(#b9b9f0bfb9)"><g clip-path="url(#023e024ead)"><path fill="#ae0f0f" d="M 0.246094 0 L 154.746094 0 L 154.746094 928.210938 L 0.246094 928.210938 Z M 0.246094 0 " fill-opacity="1" fill-rule="nonzero"/></g></g></g></g></svg>