<svg xmlns="http://www.w3.org/2000/svg" xmlns:xlink="http://www.w3.org/1999/xlink" width="2000" zoomAndPan="magnify" viewBox="0 0 1500 1499.999933" height="2000" preserveAspectRatio="xMidYMid meet" version="1.0"><defs><clipPath id="b8aca0699e"><path d="M 499.492188 284.351562 L 1425.003906 284.351562 L 1425.003906 438.925781 L 499.492188 438.925781 Z M 499.492188 284.351562 " clip-rule="nonzero"/></clipPath><clipPath id="9af6262c11"><path d="M 0.492188 0.351562 L 926.003906 0.351562 L 926.003906 154.925781 L 0.492188 154.925781 Z M 0.492188 0.351562 " clip-rule="nonzero"/></clipPath><clipPath id="74ba389103"><rect x="0" width="927" y="0" height="155"/></clipPath><clipPath id="ec281b9501"><path d="M 1062.066406 496.878906 L 1216.566406 496.878906 L 1216.566406 1425 L 1062.066406 1425 Z M 1062.066406 496.878906 " clip-rule="nonzero"/></clipPath><clipPath id="1135e166ff"><path d="M 0.0664062 0.878906 L 154.566406 0.878906 L 154.566406 929 L 0.0664062 929 Z M 0.0664062 0.878906 " clip-rule="nonzero"/></clipPath><clipPath id="778c3e1999"><rect x="0" width="155" y="0" height="929"/></clipPath><clipPath id="28a9fe4508"><path d="M 74.996094 1061.398438 L 1004.320312 1061.398438 L 1004.320312 1215.972656 L 74.996094 1215.972656 Z M 74.996094 1061.398438 " clip-rule="nonzero"/></clipPath><clipPath id="876e786cf3"><path d="M 1 0.398438 L 930.320312 0.398438 L 930.320312 154.972656 L 1 154.972656 Z M 1 0.398438 " clip-rule="nonzero"/></clipPath><clipPath id="372d38a748"><rect x="0" width="931" y="0" height="155"/></clipPath><clipPath id="be5ffb3b8a"><path d="M 75 75 L 229.5 75 L 229.5 1003.121094 L 75 1003.121094 Z M 75 75 " clip-rule="nonzero"/></clipPath><clipPath id="d65b207cb1"><path d="M 0 0 L 154.5 0 L 154.5 928.121094 L 0 928.121094 Z M 0 0 " clip-rule="nonzero"/></clipPath><clipPath id="6a8dfaf555"><rect x="0" width="155" y="0" height="929"/></clipPath><clipPath id="a119f46858"><path d="M 499.492188 75.324219 L 1425.003906 75.324219 L 1425.003906 229.898438 L 499.492188 229.898438 Z M 499.492188 75.324219 " clip-rule="nonzero"/></clipPath><clipPath id="031c8d5f8a"><path d="M 0.492188 0.324219 L 926.003906 0.324219 L 926.003906 154.898438 L 0.492188 154.898438 Z M 0.492188 0.324219 " clip-rule="nonzero"/></clipPath><clipPath id="0e78aeed89"><rect x="0" width="927" y="0" height="155"/></clipPath><clipPath id="9bbff6e016"><path d="M 1270.5 496.878906 L 1425 496.878906 L 1425 1425 L 1270.5 1425 Z M 1270.5 496.878906 " clip-rule="nonzero"/></clipPath><clipPath id="517d4f2e23"><path d="M 0.5 0.878906 L 155 0.878906 L 155 929 L 0.5 929 Z M 0.5 0.878906 " clip-rule="nonzero"/></clipPath><clipPath id="bce4b0e676"><rect x="0" width="155" y="0" height="929"/></clipPath><clipPath id="14ed86c4c3"><path d="M 74.996094 1270.425781 L 1004.320312 1270.425781 L 1004.320312 1425 L 74.996094 1425 Z M 74.996094 1270.425781 " clip-rule="nonzero"/></clipPath><clipPath id="6b1c87ed2b"><path d="M 1 0.425781 L 930.320312 0.425781 L 930.320312 155 L 1 155 Z M 1 0.425781 " clip-rule="nonzero"/></clipPath><clipPath id="def10e1090"><rect x="0" width="931" y="0" height="155"/></clipPath><clipPath id="d4c240ce17"><path d="M 287.246094 75 L 441.746094 75 L 441.746094 1003.121094 L 287.246094 1003.121094 Z M 287.246094 75 " clip-rule="nonzero"/></clipPath><clipPath id="e86ff0a9eb"><path d="M 0.246094 0 L 154.746094 0 L 154.746094 928.121094 L 0.246094 928.121094 Z M 0.246094 0 " clip-rule="nonzero"/></clipPath><clipPath id="d8354490c7"><rect x="0" width="155" y="0" height="929"/></clipPath></defs><g clip-path="url(#b8aca0699e)"><g transform="matrix(1, 0, 0, 1, 499, 284)"><g clip-path="url(#74ba389103)"><g clip-path="url(#9af6262c11)"><path fill="#ae0f0f" d="M 0.492188 154.925781 L 0.492188 0.351562 L 926.121094 0.351562 L 926.121094 154.925781 Z M 0.492188 154.925781 " fill-opacity="1" fill-rule="nonzero"/></g></g></g></g><g clip-path="url(#ec281b9501)"><g transform="matrix(1, 0, 0, 1, 1062, 496)"><g clip-path="url(#778c3e1999)"><g clip-path="url(#1135e166ff)"><path fill="#ae0f0f" d="M 0.0664062 0.878906 L 154.566406 0.878906 L 154.566406 929.089844 L 0.0664062 929.089844 Z M 0.0664062 0.878906 " fill-opacity="1" fill-rule="nonzero"/></g></g></g></g><g clip-path="url(#28a9fe4508)"><g transform="matrix(1, 0, 0, 1, 74, 1061)"><g clip-path="url(#372d38a748)"><g clip-path="url(#876e786cf3)"><path fill="#ae0f0f" d="M 930.320312 0.398438 L 930.320312 154.972656 L 1.070312 154.972656 L 1.070312 0.398438 Z M 930.320312 0.398438 " fill-opacity="1" fill-rule="nonzero"/></g></g></g></g><g clip-path="url(#be5ffb3b8a)"><g transform="matrix(1, 0, 0, 1, 75, 75)"><g clip-path="url(#6a8dfaf555)"><g clip-path="url(#d65b207cb1)"><path fill="#ae0f0f" d="M 0 0 L 154.5 0 L 154.5 928.210938 L 0 928.210938 Z M 0 0 " fill-opacity="1" fill-rule="nonzero"/></g></g></g></g><g clip-path="url(#a119f46858)"><g transform="matrix(1, 0, 0, 1, 499, 75)"><g clip-path="url(#0e78aeed89)"><g clip-path="url(#031c8d5f8a)"><path fill="#ae0f0f" d="M 0.492188 154.898438 L 0.492188 0.324219 L 926.121094 0.324219 L 926.121094 154.898438 Z M 0.492188 154.898438 " fill-opacity="1" fill-rule="nonzero"/></g></g></g></g><g clip-path="url(#9bbff6e016)"><g transform="matrix(1, 0, 0, 1, 1270, 496)"><g clip-path="url(#bce4b0e676)"><g clip-path="url(#517d4f2e23)"><path fill="#ae0f0f" d="M 0.5 0.878906 L 155 0.878906 L 155 929.089844 L 0.5 929.089844 Z M 0.5 0.878906 " fill-opacity="1" fill-rule="nonzero"/></g></g></g></g><g clip-path="url(#14ed86c4c3)"><g transform="matrix(1, 0, 0, 1, 74, 1270)"><g clip-path="url(#def10e1090)"><g clip-path="url(#6b1c87ed2b)"><path fill="#ae0f0f" d="M 930.320312 0.425781 L 930.320312 155 L 1.070312 155 L 1.070312 0.425781 Z M 930.320312 0.425781 " fill-opacity="1" fill-rule="nonzero"/></g></g></g></g><g clip-path="url(#d4c240ce17)"><g transform="matrix(1, 0, 0, 1, 287, 75)"><g clip-path="url(#d8354490c7)"><g clip-path="url(#e86ff0a9eb)"><path fill="#ae0f0f" d="M 0.246094 0 L 154.746094 0 L 154.746094 928.210938 L 0.246094 928.210938 Z M 0.246094 0 " fill-opacity="1" fill-rule="nonzero"/></g></g></g></g></svg>