<svg xmlns="http://www.w3.org/2000/svg" xmlns:xlink="http://www.w3.org/1999/xlink" width="2000" zoomAndPan="magnify" viewBox="0 0 1500 1499.999933" height="2000" preserveAspectRatio="xMidYMid meet" version="1.0"><defs><clipPath id="9e358bda5e"><path d="M 499.492188 284.351562 L 1425.003906 284.351562 L 1425.003906 438.925781 L 499.492188 438.925781 Z M 499.492188 284.351562 " clip-rule="nonzero"/></clipPath><clipPath id="29fdc6ec85"><path d="M 0.492188 0.351562 L 926.003906 0.351562 L 926.003906 154.925781 L 0.492188 154.925781 Z M 0.492188 0.351562 " clip-rule="nonzero"/></clipPath><clipPath id="ff2edf7625"><rect x="0" width="927" y="0" height="155"/></clipPath><clipPath id="317a05ac39"><path d="M 1062.066406 496.878906 L 1216.566406 496.878906 L 1216.566406 1425 L 1062.066406 1425 Z M 1062.066406 496.878906 " clip-rule="nonzero"/></clipPath><clipPath id="beb2923b06"><path d="M 0.0664062 0.878906 L 154.566406 0.878906 L 154.566406 929 L 0.0664062 929 Z M 0.0664062 0.878906 " clip-rule="nonzero"/></clipPath><clipPath id="1f6a560f26"><rect x="0" width="155" y="0" height="929"/></clipPath><clipPath id="bbf554a656"><path d="M 74.996094 1061.398438 L 1004.320312 1061.398438 L 1004.320312 1215.972656 L 74.996094 1215.972656 Z M 74.996094 1061.398438 " clip-rule="nonzero"/></clipPath><clipPath id="dc601c65fc"><path d="M 1 0.398438 L 930.320312 0.398438 L 930.320312 154.972656 L 1 154.972656 Z M 1 0.398438 " clip-rule="nonzero"/></clipPath><clipPath id="c4f8cf74a0"><rect x="0" width="931" y="0" height="155"/></clipPath><clipPath id="1d1b81bd63"><path d="M 75 75 L 229.5 75 L 229.5 1003.121094 L 75 1003.121094 Z M 75 75 " clip-rule="nonzero"/></clipPath><clipPath id="13b4041f23"><path d="M 0 0 L 154.5 0 L 154.5 928.121094 L 0 928.121094 Z M 0 0 " clip-rule="nonzero"/></clipPath><clipPath id="34d6c47a4c"><rect x="0" width="155" y="0" height="929"/></clipPath><clipPath id="7712fc454d"><path d="M 499.492188 75.324219 L 1425.003906 75.324219 L 1425.003906 229.898438 L 499.492188 229.898438 Z M 499.492188 75.324219 " clip-rule="nonzero"/></clipPath><clipPath id="830221582d"><path d="M 0.492188 0.324219 L 926.003906 0.324219 L 926.003906 154.898438 L 0.492188 154.898438 Z M 0.492188 0.324219 " clip-rule="nonzero"/></clipPath><clipPath id="c2dba4b227"><rect x="0" width="927" y="0" height="155"/></clipPath><clipPath id="6e872ed0ad"><path d="M 1270.5 496.878906 L 1425 496.878906 L 1425 1425 L 1270.5 1425 Z M 1270.5 496.878906 " clip-rule="nonzero"/></clipPath><clipPath id="f175165ad3"><path d="M 0.5 0.878906 L 155 0.878906 L 155 929 L 0.5 929 Z M 0.5 0.878906 " clip-rule="nonzero"/></clipPath><clipPath id="5682755592"><rect x="0" width="155" y="0" height="929"/></clipPath><clipPath id="4b0c23e7ce"><path d="M 74.996094 1270.425781 L 1004.320312 1270.425781 L 1004.320312 1425 L 74.996094 1425 Z M 74.996094 1270.425781 " clip-rule="nonzero"/></clipPath><clipPath id="12fe5ae621"><path d="M 1 0.425781 L 930.320312 0.425781 L 930.320312 155 L 1 155 Z M 1 0.425781 " clip-rule="nonzero"/></clipPath><clipPath id="0d9932b8ed"><rect x="0" width="931" y="0" height="155"/></clipPath><clipPath id="f30d5f158d"><path d="M 287.246094 75 L 441.746094 75 L 441.746094 1003.121094 L 287.246094 1003.121094 Z M 287.246094 75 " clip-rule="nonzero"/></clipPath><clipPath id="42feec640a"><path d="M 0.246094 0 L 154.746094 0 L 154.746094 928.121094 L 0.246094 928.121094 Z M 0.246094 0 " clip-rule="nonzero"/></clipPath><clipPath id="099c44df2c"><rect x="0" width="155" y="0" height="929"/></clipPath></defs><g clip-path="url(#9e358bda5e)"><g transform="matrix(1, 0, 0, 1, 499, 284)"><g clip-path="url(#ff2edf7625)"><g clip-path="url(#29fdc6ec85)"><path fill="#001114" d="M 0.492188 154.925781 L 0.492188 0.351562 L 926.121094 0.351562 L 926.121094 154.925781 Z M 0.492188 154.925781 " fill-opacity="1" fill-rule="nonzero"/></g></g></g></g><g clip-path="url(#317a05ac39)"><g transform="matrix(1, 0, 0, 1, 1062, 496)"><g clip-path="url(#1f6a560f26)"><g clip-path="url(#beb2923b06)"><path fill="#001114" d="M 0.0664062 0.878906 L 154.566406 0.878906 L 154.566406 929.089844 L 0.0664062 929.089844 Z M 0.0664062 0.878906 " fill-opacity="1" fill-rule="nonzero"/></g></g></g></g><g clip-path="url(#bbf554a656)"><g transform="matrix(1, 0, 0, 1, 74, 1061)"><g clip-path="url(#c4f8cf74a0)"><g clip-path="url(#dc601c65fc)"><path fill="#001114" d="M 930.320312 0.398438 L 930.320312 154.972656 L 1.070312 154.972656 L 1.070312 0.398438 Z M 930.320312 0.398438 " fill-opacity="1" fill-rule="nonzero"/></g></g></g></g><g clip-path="url(#1d1b81bd63)"><g transform="matrix(1, 0, 0, 1, 75, 75)"><g clip-path="url(#34d6c47a4c)"><g clip-path="url(#13b4041f23)"><path fill="#001114" d="M 0 0 L 154.5 0 L 154.5 928.210938 L 0 928.210938 Z M 0 0 " fill-opacity="1" fill-rule="nonzero"/></g></g></g></g><g clip-path="url(#7712fc454d)"><g transform="matrix(1, 0, 0, 1, 499, 75)"><g clip-path="url(#c2dba4b227)"><g clip-path="url(#830221582d)"><path fill="#001114" d="M 0.492188 154.898438 L 0.492188 0.324219 L 926.121094 0.324219 L 926.121094 154.898438 Z M 0.492188 154.898438 " fill-opacity="1" fill-rule="nonzero"/></g></g></g></g><g clip-path="url(#6e872ed0ad)"><g transform="matrix(1, 0, 0, 1, 1270, 496)"><g clip-path="url(#5682755592)"><g clip-path="url(#f175165ad3)"><path fill="#001114" d="M 0.5 0.878906 L 155 0.878906 L 155 929.089844 L 0.5 929.089844 Z M 0.5 0.878906 " fill-opacity="1" fill-rule="nonzero"/></g></g></g></g><g clip-path="url(#4b0c23e7ce)"><g transform="matrix(1, 0, 0, 1, 74, 1270)"><g clip-path="url(#0d9932b8ed)"><g clip-path="url(#12fe5ae621)"><path fill="#001114" d="M 930.320312 0.425781 L 930.320312 155 L 1.070312 155 L 1.070312 0.425781 Z M 930.320312 0.425781 " fill-opacity="1" fill-rule="nonzero"/></g></g></g></g><g clip-path="url(#f30d5f158d)"><g transform="matrix(1, 0, 0, 1, 287, 75)"><g clip-path="url(#099c44df2c)"><g clip-path="url(#42feec640a)"><path fill="#001114" d="M 0.246094 0 L 154.746094 0 L 154.746094 928.210938 L 0.246094 928.210938 Z M 0.246094 0 " fill-opacity="1" fill-rule="nonzero"/></g></g></g></g></svg>