<svg xmlns="http://www.w3.org/2000/svg" xmlns:xlink="http://www.w3.org/1999/xlink" width="1500" zoomAndPan="magnify" viewBox="0 620 1500 220" height="220" preserveAspectRatio="xMidYMid meet" version="1.0"><defs><g/><clipPath id="ed11129ec8"><path d="M 854.195312 671.191406 L 967.632812 671.191406 L 967.632812 690.128906 L 854.195312 690.128906 Z M 854.195312 671.191406 " clip-rule="nonzero"/></clipPath><clipPath id="b26e1f19de"><path d="M 0.195312 0.191406 L 113.632812 0.191406 L 113.632812 19.128906 L 0.195312 19.128906 Z M 0.195312 0.191406 " clip-rule="nonzero"/></clipPath><clipPath id="397022fa70"><rect x="0" width="114" y="0" height="20"/></clipPath><clipPath id="55bbd4e4ba"><path d="M 923.148438 697.214844 L 942.085938 697.214844 L 942.085938 810.652344 L 923.148438 810.652344 Z M 923.148438 697.214844 " clip-rule="nonzero"/></clipPath><clipPath id="b90309d446"><path d="M 0.148438 0.214844 L 19.085938 0.214844 L 19.085938 113.652344 L 0.148438 113.652344 Z M 0.148438 0.214844 " clip-rule="nonzero"/></clipPath><clipPath id="40e12374c4"><rect x="0" width="20" y="0" height="114"/></clipPath><clipPath id="65e4ec16b4"><path d="M 802.15625 766.167969 L 916.0625 766.167969 L 916.0625 785.105469 L 802.15625 785.105469 Z M 802.15625 766.167969 " clip-rule="nonzero"/></clipPath><clipPath id="9fd3d7ae04"><path d="M 0.15625 0.167969 L 114.0625 0.167969 L 114.0625 19.105469 L 0.15625 19.105469 Z M 0.15625 0.167969 " clip-rule="nonzero"/></clipPath><clipPath id="4b160945af"><rect x="0" width="115" y="0" height="20"/></clipPath><clipPath id="4566a43cef"><path d="M 802.167969 645.65625 L 821.105469 645.65625 L 821.105469 759.089844 L 802.167969 759.089844 Z M 802.167969 645.65625 " clip-rule="nonzero"/></clipPath><clipPath id="65b7c879b7"><path d="M 0.167969 0.65625 L 19.105469 0.65625 L 19.105469 114.089844 L 0.167969 114.089844 Z M 0.167969 0.65625 " clip-rule="nonzero"/></clipPath><clipPath id="9d8d63fbae"><rect x="0" width="20" y="0" height="115"/></clipPath><clipPath id="3d7bd3b409"><path d="M 854.195312 645.644531 L 967.632812 645.644531 L 967.632812 664.582031 L 854.195312 664.582031 Z M 854.195312 645.644531 " clip-rule="nonzero"/></clipPath><clipPath id="17a02b03fc"><path d="M 0.195312 0.644531 L 113.632812 0.644531 L 113.632812 19.582031 L 0.195312 19.582031 Z M 0.195312 0.644531 " clip-rule="nonzero"/></clipPath><clipPath id="cd272ac242"><rect x="0" width="114" y="0" height="20"/></clipPath><clipPath id="adf313b9f0"><path d="M 948.695312 697.214844 L 967.632812 697.214844 L 967.632812 810.652344 L 948.695312 810.652344 Z M 948.695312 697.214844 " clip-rule="nonzero"/></clipPath><clipPath id="993d76ea6b"><path d="M 0.695312 0.214844 L 19.632812 0.214844 L 19.632812 113.652344 L 0.695312 113.652344 Z M 0.695312 0.214844 " clip-rule="nonzero"/></clipPath><clipPath id="b2c1071448"><rect x="0" width="20" y="0" height="114"/></clipPath><clipPath id="304724bece"><path d="M 802.15625 791.714844 L 916.0625 791.714844 L 916.0625 810.652344 L 802.15625 810.652344 Z M 802.15625 791.714844 " clip-rule="nonzero"/></clipPath><clipPath id="d8e314ad06"><path d="M 0.15625 0.714844 L 114.0625 0.714844 L 114.0625 19.652344 L 0.15625 19.652344 Z M 0.15625 0.714844 " clip-rule="nonzero"/></clipPath><clipPath id="a513becdd7"><rect x="0" width="115" y="0" height="20"/></clipPath><clipPath id="a046d115b7"><path d="M 828.179688 645.65625 L 847.117188 645.65625 L 847.117188 759.089844 L 828.179688 759.089844 Z M 828.179688 645.65625 " clip-rule="nonzero"/></clipPath><clipPath id="849d02f37e"><path d="M 0.179688 0.65625 L 19.117188 0.65625 L 19.117188 114.089844 L 0.179688 114.089844 Z M 0.179688 0.65625 " clip-rule="nonzero"/></clipPath><clipPath id="8603ec8f88"><rect x="0" width="20" y="0" height="115"/></clipPath></defs><g fill="#001114" fill-opacity="1"><g transform="translate(24.328156, 809.24991)"><g><path d="M 235.921875 -164.484375 L 235.921875 -98.21875 C 236.078125 -94.300781 236 -89.484375 235.6875 -83.765625 C 235.375 -78.046875 234.550781 -71.894531 233.21875 -65.3125 C 231.882812 -58.738281 229.570312 -52.082031 226.28125 -45.34375 C 223 -38.613281 218.457031 -32.269531 212.65625 -26.3125 C 195.269531 -8.769531 169.265625 0 134.640625 0 L 115.375 0 C 80.914062 0 54.988281 -8.769531 37.59375 -26.3125 C 31.644531 -32.269531 27.0625 -38.613281 23.84375 -45.34375 C 20.632812 -52.082031 18.320312 -58.738281 16.90625 -65.3125 C 15.5 -71.894531 14.675781 -78.046875 14.4375 -83.765625 C 14.207031 -89.484375 14.09375 -94.300781 14.09375 -98.21875 L 14.09375 -164.484375 L 44.40625 -164.484375 L 44.40625 -98.21875 C 44.40625 -93.675781 44.601562 -88.425781 45 -82.46875 C 45.394531 -76.519531 46.609375 -70.488281 48.640625 -64.375 C 50.679688 -58.269531 54.128906 -52.710938 58.984375 -47.703125 C 70.421875 -36.109375 89.21875 -30.3125 115.375 -30.3125 L 134.640625 -30.3125 C 160.804688 -30.3125 179.609375 -36.109375 191.046875 -47.703125 C 196.054688 -52.710938 199.578125 -58.269531 201.609375 -64.375 C 203.648438 -70.488281 204.863281 -76.519531 205.25 -82.46875 C 205.644531 -88.425781 205.84375 -93.675781 205.84375 -98.21875 L 205.84375 -164.484375 Z M 235.921875 -164.484375 "/></g></g></g><g fill="#001114" fill-opacity="1"><g transform="translate(274.584055, 809.24991)"><g><path d="M 216.890625 -36.890625 L 216.890625 -164.484375 L 247.203125 -164.484375 L 247.203125 0 L 214.78125 0 L 44.40625 -135.109375 L 44.40625 0 L 14.09375 0 L 14.09375 -164.484375 L 55.921875 -164.484375 Z M 216.890625 -36.890625 "/></g></g></g><g fill="#001114" fill-opacity="1"><g transform="translate(536.119067, 809.24991)"><g><path d="M 172.953125 -103.859375 C 186.265625 -102.140625 196.953125 -99.359375 205.015625 -95.515625 C 213.085938 -91.679688 219.238281 -87.332031 223.46875 -82.46875 C 227.695312 -77.613281 230.59375 -72.679688 232.15625 -67.671875 C 233.726562 -62.660156 234.515625 -58.039062 234.515625 -53.8125 C 234.515625 -42.53125 230.285156 -32.738281 221.828125 -24.4375 C 217.128906 -19.894531 211.523438 -16.132812 205.015625 -13.15625 C 198.515625 -10.175781 191.703125 -7.785156 184.578125 -5.984375 C 177.453125 -4.191406 170.476562 -2.863281 163.65625 -2 C 156.84375 -1.132812 150.734375 -0.582031 145.328125 -0.34375 C 139.929688 -0.113281 135.820312 0 133 0 C 132.375 0 131.785156 0 131.234375 0 C 130.691406 0 130.265625 0 129.953125 0 L 14.09375 0 L 14.09375 -164.25 L 87.171875 -164.25 C 92.972656 -164.25 99.710938 -164.09375 107.390625 -163.78125 C 115.066406 -163.46875 122.898438 -162.679688 130.890625 -161.421875 C 138.878906 -160.171875 146.28125 -158.019531 153.09375 -154.96875 C 159.90625 -151.914062 165.425781 -147.609375 169.65625 -142.046875 C 173.882812 -136.484375 176 -129.394531 176 -120.78125 C 176 -114.351562 174.984375 -108.710938 172.953125 -103.859375 Z M 44.40625 -133.9375 L 44.40625 -105.515625 L 81.0625 -105.515625 C 94.070312 -105.515625 104.648438 -105.785156 112.796875 -106.328125 C 120.941406 -106.878906 127.285156 -107.660156 131.828125 -108.671875 C 136.367188 -109.691406 139.617188 -110.828125 141.578125 -112.078125 C 143.535156 -113.335938 144.707031 -114.710938 145.09375 -116.203125 C 145.488281 -117.691406 145.6875 -119.21875 145.6875 -120.78125 C 145.6875 -122.820312 144.160156 -124.859375 141.109375 -126.890625 C 138.054688 -128.929688 132.335938 -130.613281 123.953125 -131.9375 C 115.566406 -133.269531 103.304688 -133.9375 87.171875 -133.9375 Z M 198.328125 -46.0625 C 199.890625 -47.625 200.867188 -49.03125 201.265625 -50.28125 C 201.660156 -51.539062 201.859375 -52.71875 201.859375 -53.8125 C 201.859375 -58.976562 199.15625 -63.128906 193.75 -66.265625 C 188.34375 -69.398438 181.332031 -71.671875 172.71875 -73.078125 C 164.101562 -74.484375 155.09375 -75.1875 145.6875 -75.1875 L 44.40625 -75.1875 L 44.40625 -30.3125 L 130.1875 -30.3125 C 135.351562 -30.15625 141.222656 -30.3125 147.796875 -30.78125 C 154.378906 -31.25 160.921875 -32.109375 167.421875 -33.359375 C 173.921875 -34.617188 179.910156 -36.304688 185.390625 -38.421875 C 190.878906 -40.535156 195.191406 -43.082031 198.328125 -46.0625 Z M 198.328125 -46.0625 "/></g></g></g><g fill="#001114" fill-opacity="1"><g transform="translate(979.246531, 809.24991)"><g><path d="M 241.328125 -164.484375 L 152.5 -84.359375 L 245.796875 0 L 200.671875 0 L 129.953125 -63.921875 L 59.21875 0 L 14.09375 0 L 107.390625 -84.359375 L 18.796875 -164.484375 L 63.921875 -164.484375 L 129.953125 -104.796875 L 195.984375 -164.484375 Z M 241.328125 -164.484375 "/></g></g></g><g fill="#001114" fill-opacity="1"><g transform="translate(1228.562529, 809.24991)"><g><path d="M 98.453125 -164.484375 C 112.085938 -164.484375 125.640625 -163.617188 139.109375 -161.890625 C 152.578125 -160.171875 165.34375 -157.394531 177.40625 -153.5625 C 189.46875 -149.726562 200.160156 -144.796875 209.484375 -138.765625 C 218.804688 -132.734375 226.128906 -125.367188 231.453125 -116.671875 C 236.785156 -107.972656 239.453125 -97.90625 239.453125 -86.46875 C 239.453125 -74.5625 236.75 -63.945312 231.34375 -54.625 C 225.9375 -45.3125 218.691406 -37.207031 209.609375 -30.3125 C 200.523438 -23.414062 190.378906 -17.734375 179.171875 -13.265625 C 167.972656 -8.804688 156.5 -5.476562 144.75 -3.28125 C 133 -1.09375 121.796875 0 111.140625 0 L 14.09375 0 L 14.09375 -164.484375 Z M 111.140625 -30.546875 C 117.878906 -30.546875 125.554688 -31.210938 134.171875 -32.546875 C 142.785156 -33.878906 151.476562 -35.953125 160.25 -38.765625 C 169.03125 -41.585938 177.097656 -45.226562 184.453125 -49.6875 C 191.816406 -54.15625 197.734375 -59.40625 202.203125 -65.4375 C 206.671875 -71.46875 208.90625 -78.476562 208.90625 -86.46875 C 208.90625 -93.988281 206.4375 -100.453125 201.5 -105.859375 C 196.5625 -111.265625 190.019531 -115.769531 181.875 -119.375 C 173.726562 -122.976562 164.757812 -125.875 154.96875 -128.0625 C 145.175781 -130.257812 135.34375 -131.785156 125.46875 -132.640625 C 115.601562 -133.503906 106.597656 -133.9375 98.453125 -133.9375 L 44.640625 -133.9375 L 44.640625 -30.546875 Z M 111.140625 -30.546875 "/></g></g></g><g clip-path="url(#ed11129ec8)"><g transform="matrix(1, 0, 0, 1, 854, 671)"><g clip-path="url(#397022fa70)"><g clip-path="url(#b26e1f19de)"><path fill="#ae0f0f" d="M 0.195312 19.125 L 0.195312 0.191406 L 113.667969 0.191406 L 113.667969 19.125 Z M 0.195312 19.125 " fill-opacity="1" fill-rule="nonzero"/></g></g></g></g><g clip-path="url(#55bbd4e4ba)"><g transform="matrix(1, 0, 0, 1, 923, 697)"><g clip-path="url(#40e12374c4)"><g clip-path="url(#b90309d446)"><path fill="#ae0f0f" d="M 0.148438 0.214844 L 19.085938 0.214844 L 19.085938 113.6875 L 0.148438 113.6875 Z M 0.148438 0.214844 " fill-opacity="1" fill-rule="nonzero"/></g></g></g></g><g clip-path="url(#65e4ec16b4)"><g transform="matrix(1, 0, 0, 1, 802, 766)"><g clip-path="url(#4b160945af)"><g clip-path="url(#9fd3d7ae04)"><path fill="#ae0f0f" d="M 114.0625 0.167969 L 114.0625 19.105469 L 0.144531 19.105469 L 0.144531 0.167969 Z M 114.0625 0.167969 " fill-opacity="1" fill-rule="nonzero"/></g></g></g></g><g clip-path="url(#4566a43cef)"><g transform="matrix(1, 0, 0, 1, 802, 645)"><g clip-path="url(#9d8d63fbae)"><g clip-path="url(#65b7c879b7)"><path fill="#ae0f0f" d="M 0.167969 0.65625 L 19.105469 0.65625 L 19.105469 114.125 L 0.167969 114.125 Z M 0.167969 0.65625 " fill-opacity="1" fill-rule="nonzero"/></g></g></g></g><g clip-path="url(#3d7bd3b409)"><g transform="matrix(1, 0, 0, 1, 854, 645)"><g clip-path="url(#cd272ac242)"><g clip-path="url(#17a02b03fc)"><path fill="#ae0f0f" d="M 0.195312 19.582031 L 0.195312 0.644531 L 113.667969 0.644531 L 113.667969 19.582031 Z M 0.195312 19.582031 " fill-opacity="1" fill-rule="nonzero"/></g></g></g></g><g clip-path="url(#adf313b9f0)"><g transform="matrix(1, 0, 0, 1, 948, 697)"><g clip-path="url(#b2c1071448)"><g clip-path="url(#993d76ea6b)"><path fill="#ae0f0f" d="M 0.695312 0.214844 L 19.632812 0.214844 L 19.632812 113.6875 L 0.695312 113.6875 Z M 0.695312 0.214844 " fill-opacity="1" fill-rule="nonzero"/></g></g></g></g><g clip-path="url(#304724bece)"><g transform="matrix(1, 0, 0, 1, 802, 791)"><g clip-path="url(#a513becdd7)"><g clip-path="url(#d8e314ad06)"><path fill="#ae0f0f" d="M 114.0625 0.714844 L 114.0625 19.652344 L 0.144531 19.652344 L 0.144531 0.714844 Z M 114.0625 0.714844 " fill-opacity="1" fill-rule="nonzero"/></g></g></g></g><g clip-path="url(#a046d115b7)"><g transform="matrix(1, 0, 0, 1, 828, 645)"><g clip-path="url(#8603ec8f88)"><g clip-path="url(#849d02f37e)"><path fill="#ae0f0f" d="M 0.179688 0.65625 L 19.117188 0.65625 L 19.117188 114.125 L 0.179688 114.125 Z M 0.179688 0.65625 " fill-opacity="1" fill-rule="nonzero"/></g></g></g></g></svg>